HIERARCHY
ROOT TopBone
{
	OFFSET 0.000000 5.000000 0.000000
	CHANNELS 6 Xposition Yposition Zposition Xrotation Yrotation Zrotation
	JOINT RightBone
	{
		OFFSET 0.000000 -5.000000 1.000000
		CHANNELS 3 Xrotation Yrotation Zrotation
		End Site
		{
			OFFSET 47.000000 0.000000 -1.000000
		}
	}
	JOINT BottomBone
	{
		OFFSET 0.000000 -5.000000 1.000000
		CHANNELS 3 Xrotation Yrotation Zrotation
		End Site
		{
			OFFSET 0.000000 0.000000 -48.000000
		}
	}
	JOINT LeftBone
	{
		OFFSET 0.000000 -5.000000 1.000000
		CHANNELS 3 Xrotation Yrotation Zrotation
		End Site
		{
			OFFSET -47.000000 0.000000 -1.000000
		}
	}
	JOINT TopBone.001
	{
		OFFSET 0.000000 -5.000000 1.000000
		CHANNELS 3 Xrotation Yrotation Zrotation
		End Site
		{
			OFFSET 0.000000 0.000000 46.000000
		}
	}
}
MOTION
Frames: 41
Frame Time: 0.041667
-0.000000 5.000000 0.000000 -0.000000 0.000000 -0.000000 0.000000 0.000000 -0.000000 -0.000000 0.000000 -0.000000 0.000000 -0.000000 0.000000 -0.000000 0.000000 0.000000 
-0.000000 5.000000 0.000000 -0.000000 0.000000 -0.000000 0.000000 2.594991 -0.000000 -0.000000 2.594992 0.000000 0.000000 2.594992 -0.000000 -0.000000 2.594992 0.000001 
-0.000000 5.000000 0.000000 -0.000000 0.000000 -0.000000 0.000000 10.531833 -0.000000 -0.000000 10.531837 0.000001 0.000000 10.531836 -0.000000 -0.000000 10.531836 0.000003 
-0.000000 5.000000 0.000000 -0.000000 0.000000 -0.000000 0.000001 22.381652 0.000000 -0.000000 22.381662 0.000002 0.000001 22.381659 -0.000001 0.000000 22.381661 0.000007 
-0.000000 5.000000 0.000000 -0.000000 0.000000 -0.000000 0.000003 34.771762 0.000001 0.000000 34.771772 0.000004 0.000004 34.771769 -0.000001 0.000000 34.771772 0.000011 
-0.000000 5.000000 0.000000 -0.000000 0.000000 -0.000000 0.000000 44.999950 0.000017 -0.000003 44.999967 0.000011 -0.000004 44.999964 0.000016 -0.000003 44.999967 0.000017 
-0.000000 5.000000 0.000000 -0.000000 0.000000 -0.000000 0.000002 53.878496 0.000021 -0.000004 53.878510 0.000014 -0.000002 53.878506 0.000018 -0.000004 53.878510 0.000024 
-0.000000 5.000000 0.000000 -0.000000 0.000000 -0.000000 0.000006 62.935221 0.000027 -0.000006 62.935228 0.000020 -0.000000 62.935228 0.000022 -0.000004 62.935228 0.000034 
-0.000000 5.000000 0.000000 -0.000000 0.000000 -0.000000 0.000014 72.064704 0.000042 -0.000009 72.064711 0.000030 0.000005 72.064711 0.000030 -0.000006 72.064711 0.000054 
-0.000000 5.000000 0.000000 -0.000000 0.000000 -0.000000 0.000039 81.121446 0.000086 -0.000020 81.121440 0.000060 0.000020 81.121440 0.000057 -0.000011 81.121440 0.000113 
-0.000000 5.000000 0.000000 -0.000000 0.000000 -0.000000 -0.000000 89.999989 -0.000001 -0.000000 89.999996 0.000003 -0.000000 89.999996 -0.000002 -0.000000 89.999996 -0.000004 
-0.000000 5.000000 0.000000 -0.000000 0.000000 -0.000000 -0.000017 98.878531 -0.000131 0.000040 98.878552 -0.000075 0.000017 98.878552 -0.000103 0.000017 98.878552 -0.000125 
-0.000000 5.000000 0.000000 -0.000000 0.000000 -0.000000 -0.000013 107.935273 -0.000064 0.000021 107.935273 -0.000036 0.000004 107.935280 -0.000048 0.000008 107.935273 -0.000061 
-0.000000 5.000000 0.000000 -0.000000 0.000000 -0.000000 -0.000012 117.064771 -0.000043 0.000014 117.064757 -0.000023 -0.000001 117.064757 -0.000029 0.000004 117.064757 -0.000040 
-0.000000 5.000000 0.000000 -0.000000 0.000000 -0.000000 -0.000012 126.121492 -0.000032 0.000011 126.121478 -0.000016 -0.000003 126.121478 -0.000020 0.000003 126.121478 -0.000029 
-0.000000 5.000000 0.000000 -0.000000 0.000000 -0.000000 -0.000003 135.000028 -0.000029 0.000013 135.000028 -0.000014 0.000006 135.000028 -0.000021 0.000002 135.000028 -0.000024 
-0.000000 5.000000 0.000000 -0.000000 0.000000 -0.000000 -0.000004 143.878563 -0.000024 0.000011 143.878563 -0.000010 0.000003 143.878563 -0.000016 0.000001 143.878563 -0.000019 
-0.000000 5.000000 0.000000 -0.000000 0.000000 -0.000000 -0.000004 152.935271 -0.000020 0.000010 152.935285 -0.000008 0.000002 152.935285 -0.000012 0.000001 152.935285 -0.000015 
-0.000000 5.000000 0.000000 -0.000000 0.000000 -0.000000 -0.000005 162.064734 -0.000017 0.000009 162.064734 -0.000006 0.000001 162.064748 -0.000009 0.000000 162.064734 -0.000012 
-0.000000 5.000000 0.000000 -0.000000 0.000000 -0.000000 -0.000005 171.121442 -0.000015 0.000009 171.121456 -0.000004 0.000000 171.121456 -0.000007 -0.000000 171.121456 -0.000009 
-0.000000 5.000000 0.000000 -0.000000 0.000000 -0.000000 -0.000003 179.999978 -0.000013 0.000009 179.999991 -0.000002 0.000002 179.999991 -0.000005 -0.000001 179.999991 -0.000007 
-0.000000 5.000000 0.000000 -0.000000 0.000000 -0.000000 -0.000003 188.878513 -0.000010 0.000009 188.878527 -0.000001 0.000002 188.878527 -0.000003 -0.000001 188.878527 -0.000004 
-0.000000 5.000000 0.000000 -0.000000 0.000000 -0.000000 -0.000002 197.935221 -0.000008 0.000009 197.935235 0.000001 0.000001 197.935235 -0.000000 -0.000002 197.935248 -0.000002 
-0.000000 5.000000 0.000000 -0.000000 0.000000 -0.000000 -0.000002 207.064684 -0.000006 0.000010 207.064698 0.000003 0.000001 207.064698 0.000002 -0.000003 207.064698 0.000001 
-0.000000 5.000000 0.000000 -0.000000 0.000000 -0.000000 -0.000001 216.121392 -0.000003 0.000010 216.121419 0.000005 0.000002 216.121419 0.000005 -0.000004 216.121419 0.000004 
-0.000000 5.000000 0.000000 -0.000000 0.000000 -0.000000 -0.000003 224.999928 -0.000001 0.000010 224.999955 0.000008 -0.000001 224.999955 0.000009 -0.000004 224.999955 0.000008 
-0.000000 5.000000 0.000000 -0.000000 0.000000 -0.000000 -0.000002 233.878491 0.000003 0.000011 233.878518 0.000011 -0.000000 233.878518 0.000014 -0.000006 233.878518 0.000012 
-0.000000 5.000000 0.000000 -0.000000 0.000000 -0.000000 -0.000000 242.935212 0.000010 0.000014 242.935239 0.000017 0.000001 242.935239 0.000022 -0.000009 242.935239 0.000019 
-0.000000 5.000000 0.000000 -0.000000 0.000000 -0.000000 0.000003 252.064689 0.000023 0.000018 252.064716 0.000029 0.000003 252.064716 0.000040 -0.000014 252.064716 0.000032 
-0.000000 5.000000 0.000000 -0.000000 0.000000 -0.000000 0.000014 261.121410 0.000064 0.000033 261.121438 0.000064 0.000009 261.121438 0.000092 -0.000030 261.121438 0.000070 
-0.000000 5.000000 0.000000 -0.000000 0.000000 -0.000000 -0.000000 270.000055 0.000001 -0.000000 270.000028 -0.000006 -0.000000 270.000028 -0.000004 -0.000000 270.000028 -0.000003 
-0.000000 5.000000 0.000000 -0.000000 0.000000 -0.000000 0.000000 278.878536 -0.000064 -0.000019 278.878564 -0.000064 0.000009 278.878564 -0.000087 0.000026 278.878564 -0.000081 
-0.000000 5.000000 0.000000 -0.000000 0.000000 -0.000000 -0.000004 287.935258 -0.000039 -0.000008 287.935285 -0.000033 0.000002 287.935285 -0.000048 0.000014 287.935285 -0.000040 
-0.000000 5.000000 0.000000 -0.000000 0.000000 -0.000000 -0.000005 297.064762 -0.000030 -0.000004 297.064762 -0.000022 0.000000 297.064762 -0.000035 0.000010 297.064762 -0.000025 
-0.000000 5.000000 0.000000 -0.000000 0.000000 -0.000000 -0.000005 306.121456 -0.000027 -0.000002 306.121483 -0.000017 -0.000000 306.121483 -0.000030 0.000008 306.121483 -0.000018 
-0.000000 5.000000 0.000000 -0.000000 0.000000 -0.000000 0.000001 315.000019 -0.000011 -0.000001 315.000019 -0.000010 0.000003 315.000019 -0.000014 0.000004 315.000019 -0.000014 
-0.000000 5.000000 0.000000 -0.000000 0.000000 -0.000000 -0.000001 325.228200 -0.000011 -0.000000 325.228200 -0.000008 0.000002 325.228227 -0.000013 0.000003 325.228200 -0.000010 
-0.000000 5.000000 0.000000 -0.000000 0.000000 -0.000000 -0.000001 337.618327 -0.000011 0.000000 337.618327 -0.000006 0.000001 337.618327 -0.000012 0.000003 337.618327 -0.000006 
-0.000000 5.000000 0.000000 -0.000000 0.000000 -0.000000 -0.000001 349.468132 -0.000011 0.000001 349.468159 -0.000005 0.000002 349.468159 -0.000012 0.000003 349.468159 -0.000002 
-0.000000 5.000000 0.000000 -0.000000 0.000000 -0.000000 -0.000000 357.404975 -0.000011 0.000001 357.405003 -0.000004 0.000002 357.405003 -0.000012 0.000003 357.405003 -0.000000 
-0.000000 5.000000 0.000000 -0.000000 0.000000 -0.000000 0.000000 359.999983 -0.000000 -0.000000 360.000010 -0.000000 0.000000 359.999983 -0.000000 0.000000 360.000010 -0.000000 
